<svg xmlns="http://www.w3.org/2000/svg" xmlns:xlink="http://www.w3.org/1999/xlink" id="Layer_1" x="0" y="0" version="1.1" viewBox="0 0 30 20" xml:space="preserve" style="enable-background:new 0 0 30 20"><style type="text/css">.st0{opacity:.5;fill:gray}.st1{fill:#fff}</style><rect width="30" height="20" y="0" class="st0"/><g><path d="M14.3,12.8c0-0.2,0-0.3,0-0.4c0-0.5,0.1-1,0.2-1.4c0.1-0.3,0.3-0.6,0.6-0.9c0.2-0.2,0.5-0.5,1-1s0.8-0.8,0.9-1 c0.1-0.3,0.2-0.5,0.2-0.8c0-0.5-0.2-1-0.6-1.4S15.6,5.1,15,5.1c-0.6,0-1.1,0.2-1.5,0.6c-0.4,0.4-0.7,1-0.8,1.8l-1.4-0.2 c0.1-1.1,0.5-1.9,1.2-2.4C13.1,4.3,13.9,4,15,4c1.1,0,2,0.3,2.7,0.9c0.7,0.6,1,1.3,1,2.2c0,0.5-0.1,1-0.3,1.4 c-0.2,0.4-0.7,0.9-1.4,1.5c-0.5,0.4-0.8,0.7-0.9,0.9c-0.1,0.2-0.2,0.4-0.3,0.7c-0.1,0.2-0.1,0.7-0.1,1.2H14.3z M14.2,15.6V14h1.6 v1.6H14.2z" class="st1"/></g></svg>